<svg id="Layer_1" enable-background="new 0 0 512 512" height="512" viewBox="0 0 512 512" width="512" xmlns="http://www.w3.org/2000/svg"><g><path d="m354.226 191.573-16.067-5.358c-26.341-8.779-53.986-13.231-82.163-13.231-28.176 0-55.821 4.453-82.167 13.233l-16.058 5.355c-4.26 1.42-8.676 2.185-13.143 2.293 1.141 60.446 50.659 109.268 111.373 109.268s110.232-48.822 111.373-109.267c-4.47-.108-8.888-.872-13.148-2.293zm-55.486 41.833c-11.417 11.417-26.596 17.705-42.74 17.705s-31.323-6.288-42.74-17.705c-5.858-5.858-5.858-15.355 0-21.213 5.857-5.858 15.355-5.858 21.213 0 5.751 5.751 13.396 8.918 21.527 8.918s15.776-3.167 21.527-8.918c5.857-5.858 15.355-5.858 21.213 0s5.858 15.355 0 21.213z"/><path d="m48.2 497c0 8.284 6.716 15 15 15h49.267v-97.467h-64.267z"/><path d="m256 333.133c-11.874 0-23.408-1.479-34.435-4.249l34.435 34.436 34.435-34.435c-11.027 2.769-22.561 4.248-34.435 4.248z"/><path d="m399.533 512h49.267c8.284 0 15-6.716 15-15v-82.467h-64.267z"/><path d="m255.996 82.885c37.669 0 74.89 6.039 110.627 17.95l.777.259v-5.761c0-43.778-35.489-79.267-79.267-79.267h-17.133v-1.066c0-8.284-6.716-15-15-15s-15 6.716-15 15v1.067h-17.133c-43.778 0-79.267 35.489-79.267 79.267v5.758l.763-.255c35.743-11.913 72.964-17.952 110.633-17.952z"/><path d="m373.205 134.654-16.067-5.358c-32.675-10.89-66.703-16.411-101.142-16.411s-68.467 5.521-101.142 16.411l-16.067 5.358c-7.859 2.621-12.105 11.116-9.484 18.975 2.621 7.858 11.115 12.104 18.975 9.484l16.064-5.357c29.552-9.849 60.603-14.772 91.653-14.772s62.101 4.923 91.653 14.772l16.064 5.357c7.86 2.621 16.354-1.625 18.975-9.484 2.623-7.858-1.624-16.354-9.482-18.975z"/><path d="m335.267 512h34.266v-219.787l-34.266 34.267z"/><path d="m271 512h34.267v-155.52l-34.267 34.266z"/><path d="m463.8 384.482c-.02-44.652-26.322-83.137-64.267-100.884v100.935h64.267c0-.009-.001-.017-.001-.026 0-.008.001-.016.001-.025z"/><path d="m206.733 512h34.267v-121.254l-34.267-34.266z"/><path d="m142.467 512h34.266v-185.52l-34.266-34.267z"/><path d="m48.2 384.482c0 .009.001.017.001.026s-.001.017-.001.026h64.267v-100.936c-37.945 17.746-64.247 56.232-64.267 100.884z"/></g></svg>