<svg id="Layer_3" enable-background="new 0 0 100 100" viewBox="0 0 100 100" xmlns="http://www.w3.org/2000/svg"><path d="m41.054 88.638v.001c0 .924-.756 1.68-1.68 1.68s-1.681-.756-1.681-1.68c0-.002.001-.003.001-.005.003-.922.758-1.675 1.68-1.675.924 0 1.679.755 1.68 1.679zm49.281-55.392-.011 8.402c0 .006-.002.011-.002.016l-.051 42.001c0 3.698-3.024 6.705-6.721 6.705l-37.456-.051c-.454 0-.873-.167-1.193-.487-.319-.318-.486-.737-.487-1.19 0-.001-.001-.002-.001-.003 0-.924.757-1.68 1.68-1.68l37.456.051c1.848 0 3.361-1.513 3.361-3.361l.051-40.324-26.878-.033-.007 10.078c-.004 3.704-3.019 6.713-6.723 6.713-.002 0-.004 0-.006 0h-11.767v5.03c1.344.002 2.609.527 3.56 1.48s1.474 2.22 1.472 3.566c-.003 2.779-2.265 5.036-5.042 5.036-.002 0-.003 0-.005 0-2.699-.005-4.899-2.139-5.024-4.805-.012-.082-.025-.165-.025-.251 0-.09.013-.176.026-.262.056-1.032.418-2.004 1.048-2.811l-8.38-7.007-2.764-.004-.03 23.527c0 1.848 1.512 3.361 3.36 3.361h2.874.017c.924.017 1.663.773 1.663 1.68v.007c-.004.921-.758 1.673-1.68 1.673h-2.874c-3.713 0-6.721-3.024-6.721-6.721l.028-23.532-6.707-.008c-1.795-.002-3.482-.704-4.751-1.974-1.268-1.272-1.965-2.96-1.963-4.755l.026-36.968c.006-3.704 3.02-6.713 6.722-6.713h.007l36.968.041c1.796.002 3.483.704 4.75 1.974 1.268 1.272 1.965 2.96 1.962 4.757l-.007 10.084 23.526.029c1.796.002 3.483.703 4.751 1.974 1.273 1.271 1.97 2.959 1.968 4.755zm-33.613 10.04.001-1.679.002-1.68v-.001l.007-10.081.001-1.68.001-1.68.007-10.085c.002-.9-.347-1.743-.981-2.378-.634-.636-1.477-.986-2.374-.988l-36.968-.041c-.002 0-.003 0-.004 0-1.852 0-3.359 1.505-3.362 3.357l-.026 36.967c-.001.898.348 1.742.981 2.378.634.637 1.478.986 2.375.988l6.707.009 1.682.002 1.68.003 3.373.004c.393 0 .774.14 1.076.39l7.319 6.119v-4.806c0-.929.752-1.68 1.68-1.68h13.448.002.004c1.852 0 3.359-1.505 3.362-3.356l.007-10.079zm-13.961 25.68c-.317-.318-.738-.494-1.187-.494-.001 0-.002 0-.003 0-.448 0-.869.174-1.186.491-.319.317-.493.739-.494 1.187-.001.927.752 1.682 1.68 1.684.903 0 1.639-.719 1.674-1.614.001-.022.007-.042.007-.065s-.006-.044-.006-.066c-.016-.425-.184-.822-.485-1.123zm40.856-39.089-23.525-.029-.007 10.08v.002l26.881.034v-.007l.008-6.715c.001-.898-.348-1.742-.981-2.378-.634-.636-1.478-.986-2.376-.987zm-12.065 18.449c-.923 0-1.663.757-1.663 1.699 0 .924.739 1.662 1.68 1.662.924 0 1.663-.738 1.663-1.68.001-.924-.739-1.681-1.68-1.681zm-6.721 0c-.924 0-1.663.757-1.663 1.699 0 .924.739 1.68 1.68 1.68.924-.018 1.663-.756 1.663-1.68 0-.942-.739-1.699-1.68-1.699zm13.442 0c-.924 0-1.663.757-1.663 1.699 0 .924.74 1.662 1.681 1.662.923 0 1.663-.738 1.663-1.68 0-.924-.739-1.681-1.681-1.681zm.27 10.101c-.924 0-1.681.755-1.681 1.68 0 .924.74 1.68 1.664 1.68h.017c.924 0 1.68-.74 1.68-1.664 0-.942-.756-1.68-1.68-1.696zm-13.443-.018c-.924-.016-1.68.74-1.68 1.664s.739 1.681 1.68 1.697c.924 0 1.68-.755 1.68-1.68s-.756-1.681-1.68-1.681zm6.721 0c-.924 0-1.68.756-1.68 1.68 0 .926.739 1.68 1.664 1.68h.017c.925 0 1.68-.738 1.68-1.662 0-.942-.756-1.698-1.681-1.698zm-13.459 13.442c.924 0 1.68-.755 1.68-1.68 0-.924-.756-1.68-1.68-1.68s-1.68.756-1.68 1.68c0 .926.755 1.68 1.68 1.68zm20.164-3.342c-.925 0-1.68.755-1.68 1.68 0 .94.756 1.68 1.68 1.68s1.68-.74 1.68-1.664c.001-.942-.755-1.696-1.68-1.696zm-13.443-.018c-.925 0-1.68.756-1.68 1.68 0 .926.756 1.68 1.68 1.68s1.68-.738 1.68-1.68c.001-.924-.756-1.68-1.68-1.68zm6.722.018c-.924 0-1.68.755-1.68 1.68 0 .924.756 1.68 1.68 1.68s1.68-.756 1.68-1.68c0-.926-.756-1.68-1.68-1.68zm-20.165 3.326c.924 0 1.681-.757 1.681-1.664 0-.94-.757-1.68-1.681-1.68-.925-.017-1.68.74-1.68 1.664 0 .923.756 1.68 1.68 1.68zm20.148 6.756c-.924 0-1.681.755-1.681 1.681 0 .924.757 1.68 1.681 1.68s1.68-.74 1.68-1.68c0-.927-.756-1.681-1.68-1.681zm-6.722 0c-.924 0-1.68.755-1.68 1.681 0 .924.756 1.68 1.68 1.68h.017c.924 0 1.663-.757 1.663-1.68.001-.927-.739-1.681-1.68-1.681zm-6.721 3.361c.924 0 1.68-.757 1.68-1.68 0-.926-.739-1.681-1.68-1.681-.924 0-1.68.739-1.68 1.681 0 .923.756 1.68 1.68 1.68zm-13.426-.018c.923 0 1.663-.755 1.663-1.68 0-.924-.739-1.681-1.68-1.681-.924 0-1.68.757-1.68 1.681 0 .925.756 1.68 1.68 1.68zm6.704 0c.925 0 1.68-.739 1.68-1.68 0-.924-.756-1.681-1.68-1.681s-1.68.757-1.68 1.681c0 .925.756 1.68 1.68 1.68zm1.033-52.095c.462 1.615.715 3.317.715 5.079 0 1.734-.245 3.41-.694 5.003-.161.572-.348 1.132-.561 1.68-.224.574-.475 1.135-.753 1.68-.444.872-.963 1.698-1.535 2.483-.006.008-.011.018-.017.026-.003.004-.007.006-.009.01-2.782 3.802-6.975 6.5-11.802 7.324-.044.007-.088.014-.132.022-.245.04-.492.078-.74.108-.328.042-.657.076-.983.1-.031.002-.062.005-.093.007-.385.024-.773.041-1.164.041 0 0-.001 0-.002 0 0 0-.001 0-.002 0-.004 0-.008 0-.011 0-.38 0-.762-.014-1.146-.04-.041-.003-.081-.007-.123-.009-2.56-.177-4.976-.875-7.145-1.99-.578-.297-1.139-.623-1.679-.977-.583-.382-1.146-.794-1.681-1.237-4.089-3.392-6.696-8.51-6.696-14.23 0-10.201 8.285-18.484 18.484-18.484 2.41 0 4.71.474 6.823 1.318.002 0 .004.001.007.002.008.003.015.007.023.01.377.151.748.315 1.113.49.043.02.085.041.126.062.333.163.661.335.982.517.066.037.131.075.196.113.297.173.589.354.876.543.078.051.155.103.232.156.273.186.541.38.804.58.079.06.157.12.235.182.261.206.516.42.766.639.068.06.136.119.203.18.26.235.512.478.758.728.048.05.098.099.146.149.264.274.52.558.768.848.025.03.05.058.075.087.27.321.528.65.777.988.002.003.004.005.007.008 0 .001 0 .001.001.002.565.773 1.078 1.585 1.52 2.442.282.546.536 1.106.763 1.681.213.546.404 1.107.568 1.679zm-16.516 20.144c.351-.031.703-.075 1.058-.132.019-.003.037-.006.056-.009l-.57-2.307h-3.6l-.57 2.306c.024.004.048.008.071.011.346.055.69.098 1.032.129.064.005.129.01.193.015.357.027.712.045 1.068.045h.007c.361 0 .723-.018 1.086-.045.055-.004.112-.008.169-.013zm9.946-4.943-2.17-1.768-.001-.001-1.425-1.16c-.18-.147-.317-.327-.42-.522-.251-.478-.27-1.06-.006-1.562l.061-.117.001-.002 3.031-5.771c.365-.697 1.165-1.045 1.928-.84l2.898.787c-.084-1.482-.384-2.909-.867-4.249-.208-.577-.453-1.138-.727-1.681-.144-.286-.298-.566-.459-.841l-1.365.839-2.401 1.476c-.155.096-.321.16-.492.201-.128.031-.258.049-.389.049-.129 0-.256-.02-.382-.049-.241-.057-.472-.161-.674-.323l-1.684-1.361-2.083-1.683-.834-.673c-.601-.486-.793-1.318-.466-2.018l1.612-3.457c-1.241-.334-2.544-.515-3.887-.518-1.379.002-2.713.194-3.983.544l1.603 3.43c.325.692.139 1.52-.452 2.007l-.819.676-2.033 1.678-1.651 1.363c-.309.254-.688.384-1.07.384-.299 0-.599-.079-.867-.241l-.703-.424-.336-.202-2.756-1.66c-1.165 2.001-1.889 4.288-2.028 6.728l2.892-.782c.146-.039.293-.052.438-.052.62 0 1.206.339 1.498.913l.181.356 1.676 3.294 1.06 2.083.002.005.078.151c.251.492.232 1.057-.007 1.525-.103.202-.244.388-.429.54l-1.396 1.139-.996.811-1.145.934c.36.402.742.785 1.143 1.147.527.476 1.088.915 1.679 1.314.875.591 1.817 1.09 2.809 1.49l.864-3.494c.185-.75.858-1.276 1.631-1.276h6.23c.773 0 1.446.527 1.631 1.276l.864 3.494c2.15-.869 4.061-2.213 5.593-3.907zm-24.897-3.751c.133.283.272.564.422.839.023.043.042.088.065.13l.007-.005 1.427-1.163.101-.082.794-.647-.108-.211-.784-1.541-.872-1.713-2.24.605c.008.046.014.092.023.138.05.275.111.548.178.819.024.101.045.203.072.304.097.365.205.728.328 1.085.019.055.036.11.056.163.117.326.247.646.387.963.047.105.095.21.144.316zm6.589-19.701-.004-.01c-.19.101-.37.218-.555.327-.067.04-.134.078-.2.118-.595.364-1.163.769-1.702 1.213-.036.03-.072.06-.108.091-.313.262-.615.536-.906.823-.053.053-.107.105-.16.159-.107.108-.22.209-.324.321l.012.007 2.499 1.506 2.582-2.132zm12.984 2.411 2.654 2.144 2.495-1.534.009-.005c-.075-.08-.157-.152-.233-.23-.12-.123-.243-.243-.367-.363-.211-.203-.428-.399-.651-.588-.104-.089-.208-.177-.315-.262-.235-.19-.476-.372-.722-.547-.124-.089-.249-.178-.376-.263-.161-.107-.323-.212-.488-.314-.229-.141-.46-.277-.697-.405-.055-.03-.106-.065-.161-.094l-.004.009zm6.418 17.596.876.713.003.003c.012-.021.021-.043.032-.063.119-.213.223-.433.331-.651.067-.135.142-.266.204-.403.009-.019.017-.037.025-.056.181-.4.343-.808.488-1.222.275-.783.488-1.588.63-2.409l-2.264-.614-1.586 3.019-.001.001-.241.459zm-5.657-7.516-1.882 5.826-.001.002-.043.134c-.224.694-.87 1.163-1.599 1.163h-6.23c-.73 0-1.376-.47-1.599-1.163l-.046-.144-.002-.004-1.878-5.813c-.223-.691.022-1.446.607-1.874l3.271-2.391 1.77-1.295c.591-.43 1.393-.43 1.984 0l1.78 1.301 3.261 2.384c.585.428.829 1.184.607 1.874zm-8.532 3.765h3.784l1.176-3.641-3.068-2.245-3.069 2.245z"/></svg>