<svg viewBox="0 0 64 64" xmlns="http://www.w3.org/2000/svg"><g id="_11-football" fill="none" stroke="#000" stroke-linejoin="round" stroke-width="2" data-name="11-football"><path d="m25.02 51a4.349 4.349 0 0 1 -.02.51v.01l-1.98 1.48-5-2-1-4 4-4 1.43.57"/><path d="m20.08 60.69-5.08-1.69-1-4 4-4 5 2 .69 3.46"/><path d="m5.94 60.71-.94-4.71 4-3 5 2 1 4-3.86 3.86"/><path d="m20.7 41.76.3 1.21-4 4-5-2-1-5 1.29-.97h-.29"/><path d="m9.16 39.63 1.84.37 1 5-4 3-5-1-.4-2"/><path d="m1.32 48.26 1.68-1.26 5 1 1 5-4 3-3.18-.64"/><circle cx="13" cy="51" r="12"/><path d="m40 12v7a8 8 0 0 1 -8 8 8 8 0 0 1 -8-8v-7l2-3h12z"/><path d="m40 14h1a2 2 0 0 1 2 2v1a3 3 0 0 1 -3 3"/><path d="m24 14h-1a2 2 0 0 0 -2 2v1a3 3 0 0 0 3 3"/><path d="m22.006 6c-.125-2.7 1.584-5 3.749-5h12.49c2.2 0 3.924 2.364 3.742 5.12l-.987 7.88"/><path d="m23 14-.751-6"/><path d="m36 26v4l11 2-2 11 1 20h-28v-1"/><path d="m28 26v4l-11 2 1.454 8"/><path d="m47 32a7.9 7.9 0 0 1 6.147 5.968l1.853 8.032-10 2"/><path d="m55 43-10 2"/><path d="m52 53v10h-6"/><path d="m52 49v2"/><path d="m17 32a7.9 7.9 0 0 0 -5.4 4"/><path d="m37 30c0 2.211-2.236 4-5 4s-5-1.789-5-4"/><path d="m40 30c0 3.869-3.578 7-8 7s-8-3.131-8-7"/></g></svg>