<svg id="Layer_1" height="512" viewBox="0 0 195.01 228.1859" width="512" xmlns="http://www.w3.org/2000/svg"><g><path d="m155.0001 172.75c6.2026-2.855 8.9189-10.1965 6.063-16.4009l-25.7072-55.8498-11.9708-49.5357 29.4119 10.0314 28.1367 32.8521c1.582 1.8477 3.8242 2.7959 6.0801 2.7959 1.8408 0 3.6924-.6318 5.2002-1.9238 3.3555-2.874 3.7461-7.9248.8721-11.2803l-29.5596-34.5137c-.9316-1.0874-2.1387-1.9053-3.4941-2.3677l-36.6057-12.4847c-4.8394 9.2316-15.0079 14.5663-25.6161 12.9612-1.3538-.2048-2.7047-.5258-4.0157-.9538-4.7726-1.559-8.8632-4.46-11.8721-8.3425l-8.9111 2.1534c-.6006.1451-1.1628.3635-1.6904.6318-.4158.1382-.8271.3033-1.2273.515l-37.7062 19.9469c-.9053.4785-1.71 1.127-2.3701 1.9092l-28.1289 33.3027c-2.8516 3.375-2.4258 8.4229.9492 11.2734 1.502 1.2686 3.335 1.8887 5.1582 1.8887 2.2744 0 4.5332-.9648 6.1152-2.8379l27.1289-32.1182 28.5149-15.0847 12.2745 50.7927 21.6063 108.1321c1.3384 6.6977 7.8523 11.0386 14.5461 9.7011 6.6958-1.3379 11.0413-7.8488 9.703-14.5464l-19.1571-95.8743 6.5166-1.5748 23.3552 50.7402c2.8561 6.2044 10.1994 8.9156 16.4003 6.0614z"/><circle cx="168.908" cy="197.178" r="20"/><path d="m108.4799 1.1179c-10.0311-3.2764-20.6998.881-26.0538 9.4415 2.3113 2.9198 6.3505 7.3058 11.3435 9.7745-2.9766 1.1387-3.1245 2.5649-3.1982 3.3137-.021.2136-.0217.4242-.0303.636-4.3604-2.3854-7.9413-5.8205-10.4539-8.7-3.8147 11.7946 2.6287 24.4588 14.4211 28.3104 9.6754 3.1602 19.946-.5975 25.4666-8.5518 1.3916-.392 2.6626-1.0502 3.762-1.9127 2.7947-2.1921 4.4768-5.6974 4.1655-9.4944-.0447-.5507-.1342-1.5749-1.6284-2.5764-.5681-.3808-1.3419-.7576-2.3932-1.1045-.869-8.5909-6.6654-16.2831-15.4009-19.1363zm17.1305 23.0047c.3887 4.7495-3.1455 8.915-7.8955 9.3042-3.6943.3022-7.0264-1.7744-8.5107-4.9448-1.5332 3.1587-4.9072 5.1904-8.6045 4.8252-4.7422-.4683-8.207-4.6919-7.7393-9.4341.4004-4.0572 32.417-3.8233 32.75.2495z"/></g></svg>