<svg id="Capa_1" enable-background="new 0 0 512.013 512.013" viewBox="0 0 512.013 512.013" xmlns="http://www.w3.org/2000/svg"><g><path d="m445.368 351.898-20.933-8.971c-10.584-4.537-22.624-3.431-32.203 2.957-9.685 6.457-15.467 17.261-15.467 28.901v24.834c-8.438-7.817-21.26-8.918-30.214-2.462-5.667 4.084-9.235 10.379-9.79 17.268-.556 6.892 1.929 13.648 6.817 18.536l33.187 33.187v30.336c0 8.556 6.96 15.516 15.516 15.516h48.984c7.866 0 14.491-5.891 15.41-13.703l12.401-105.41c2.033-17.28-7.716-34.135-23.708-40.989zm-91.184 70.456c-1.772-1.773-2.674-4.224-2.472-6.724.204-2.535 1.486-4.774 3.61-6.305 1.297-.935 2.884-1.386 4.527-1.386 2.47 0 5.067 1.02 6.999 2.951l12.114 12.113c2.146 2.146 5.372 2.787 8.173 1.626 2.803-1.161 4.63-3.896 4.63-6.929v-42.915c0-6.614 3.285-12.752 8.788-16.421 5.348-3.565 12.067-4.182 17.974-1.65l20.933 8.971c9.929 4.255 15.982 14.72 14.72 25.448l-8.682 73.802h-53.732c.198-2.622-.27-5.304-2.197-7.197zm87.081 74.646h-48.984c-.285 0-.516-.231-.516-.516v-16.548h51.967l-1.954 16.608c-.03.26-.251.456-.513.456z"/><path d="m165.462 397.157c-8.955-6.456-21.777-5.355-30.214 2.462v-24.834c0-11.64-5.782-22.444-15.467-28.901-9.582-6.389-21.62-7.494-32.204-2.957l-20.933 8.971c-15.992 6.854-25.741 23.709-23.708 40.988l12.401 105.41c.92 7.813 7.545 13.704 15.411 13.704h48.984c8.556 0 15.516-6.96 15.516-15.516v-30.336l33.187-33.187c4.888-4.888 7.373-11.644 6.817-18.536-.555-6.889-4.123-13.183-9.79-17.268zm-45.73 99.843h-48.984c-.262 0-.482-.196-.513-.456l-1.954-16.608h51.967v16.548c0 .285-.231.516-.516.516zm38.097-74.646-35.384 35.384c-1.966 1.893-2.357 4.564-2.197 7.197h-53.732l-8.682-73.802c-1.262-10.728 4.791-21.193 14.72-25.448l20.932-8.971c2.407-1.031 4.947-1.54 7.475-1.54 3.679 0 7.33 1.078 10.499 3.19 5.502 3.668 8.788 9.807 8.788 16.421v42.915c0 3.033 1.827 5.768 4.63 6.929 2.804 1.161 6.028.519 8.173-1.626l12.114-12.113c3.218-3.217 8.28-3.904 11.526-1.565 2.124 1.531 3.406 3.77 3.61 6.305.201 2.501-.7 4.952-2.472 6.724z"/><path d="m144.613 292.184c-1.121 6.894.805 13.869 5.285 19.136 4.482 5.27 11.018 8.292 17.931 8.292h.834c2.356 27.681 17.64 51.72 39.763 66.076v20.725c0 3.252-1.807 6.177-4.716 7.632l-7.17 3.585c-1.779.889-3.132 2.449-3.761 4.336s-.482 3.947.407 5.726c.707 1.414 17.793 34.809 60.035 51.706.894.358 1.84.537 2.786.537s1.892-.179 2.786-.537c42.242-16.897 59.329-50.292 60.035-51.706 1.853-3.705.351-8.21-3.354-10.062l-7.169-3.585c-2.91-1.455-4.717-4.379-4.717-7.632v-20.725c22.123-14.356 37.407-38.395 39.763-66.076h.834c6.914 0 13.449-3.022 17.931-8.292 4.48-5.267 6.406-12.242 5.285-19.136-1.164-7.158-5.824-13.177-12.14-16.597 2.945-8.864 4.44-18.115 4.44-27.603 0-37.627-23.831-69.789-57.191-82.196-4.669-21.586-24.16-37.53-46.502-37.53-22.344 0-41.82 15.756-46.507 37.531-33.357 12.408-57.186 44.569-57.186 82.194 0 9.489 1.495 18.74 4.44 27.603-6.317 3.421-10.977 9.44-12.142 16.598zm156.804 135.188c-6.43 9.231-20.884 26.326-45.41 36.94-24.533-10.618-38.987-27.717-45.411-36.94 7.92-4.042 12.831-12.054 12.831-20.958v-12.92c10.077 4.049 21.073 6.281 32.581 6.281s22.503-2.232 32.581-6.281v12.92c-.002 8.904 4.909 16.916 12.828 20.958zm49.271-125.769c-1.627 1.913-3.998 3.01-6.505 3.01h-8.016c-4.142 0-7.5 3.358-7.5 7.5 0 40.066-32.596 72.662-72.661 72.662s-72.661-32.596-72.661-72.662c0-4.142-3.358-7.5-7.5-7.5h-8.016c-2.507 0-4.878-1.097-6.505-3.01-1.649-1.938-2.325-4.428-1.905-7.01.643-3.95 4.713-7.044 9.268-7.044h15.174c12.976 0 23.532-10.557 23.532-23.532v-16.032c0-4.705 3.828-8.532 8.532-8.532h80.161c4.705 0 8.532 3.828 8.532 8.532v16.032c0 12.976 10.557 23.532 23.532 23.532h15.174c4.555 0 8.625 3.094 9.268 7.044.422 2.581-.255 5.071-1.904 7.01zm-78.179-126.268c7.661.049 15.039 1.294 21.969 3.55 4.119 9.778 6.224 20.982 6.224 33.344 0 4.246-.601 8.397-1.77 12.401-.933-.113-1.881-.178-2.845-.178h-15.108c1.7-3.546 2.658-7.53 2.658-11.739 0-15.453-3.837-28.261-11.128-37.378zm72.191 72.649c0 8.475-1.449 16.712-4.274 24.564h-12.274c-4.705 0-8.532-3.828-8.532-8.532v-16.032c0-6.56-2.701-12.499-7.046-16.771 2.066-6.095 3.128-12.461 3.128-18.985 0-8.49-.871-16.559-2.59-24.141 19.06 13.112 31.588 35.065 31.588 59.897zm-88.694-104.726c12.517 0 23.728 7.302 29.144 18.045-4.278-.644-8.656-.981-13.111-.981-1.495 0-32.145-.004-33.498.018-3.969.064-7.875.389-11.701.966 5.41-10.81 16.63-18.048 29.166-18.048zm-16.461 32.076c8.14.114 14.674 2.565 19.418 7.304 6.329 6.322 9.674 16.722 9.674 30.075 0 6.473-4.988 11.739-11.118 11.739h-41.593c-12.976 0-23.532 10.557-23.532 23.532v16.032c0 4.705-3.828 8.532-8.532 8.532h-12.274c-2.826-7.852-4.274-16.089-4.274-24.564-.001-39.922 32.363-72.417 72.231-72.65z"/><path d="m231.442 288.064c0-4.142-3.358-7.5-7.5-7.5s-7.5 3.358-7.5 7.5v8.016c0 4.142 3.358 7.5 7.5 7.5s7.5-3.358 7.5-7.5z"/><path d="m288.071 280.564c-4.142 0-7.5 3.358-7.5 7.5v8.016c0 4.142 3.358 7.5 7.5 7.5s7.5-3.358 7.5-7.5v-8.016c0-4.142-3.358-7.5-7.5-7.5z"/><path d="m269.357 329.552c-2.041 2.013-6.961 4.045-13.351 4.045s-11.31-2.032-13.351-4.045c-2.948-2.91-7.698-2.876-10.606.071-2.909 2.949-2.877 7.698.071 10.606 5.311 5.239 14.24 8.367 23.886 8.367s18.575-3.128 23.886-8.367c2.948-2.909 2.98-7.658.071-10.606s-7.658-2.981-10.606-.071z"/><path d="m332.834 451.756c-3.236-2.587-7.955-2.06-10.541 1.176-10.421 13.039-28.799 30.963-57.166 42.311-5.882 2.352-12.361 2.353-18.242 0-28.366-11.348-46.743-29.272-57.166-42.312-2.586-3.236-7.306-3.762-10.541-1.176-3.236 2.586-3.762 7.306-1.176 10.541 11.549 14.45 31.908 34.311 63.311 46.873 4.737 1.895 9.714 2.843 14.692 2.843s9.956-.948 14.693-2.843c31.404-12.563 51.763-32.424 63.311-46.873 2.587-3.234 2.061-7.954-1.175-10.54z"/><path d="m496.49 304.613h-8.532v-265.049c0-21.815-17.749-39.564-39.564-39.564h-384.775c-21.816 0-39.564 17.749-39.564 39.564v265.048h-8.532c-4.142 0-7.5 3.358-7.5 7.5s3.358 7.5 7.5 7.5h64.129c4.142 0 7.5-3.358 7.5-7.5s-3.358-7.5-7.5-7.5h-8.532v-17.064h48.613c4.142 0 7.5-3.358 7.5-7.5s-3.358-7.5-7.5-7.5h-.516v-33.097h8.533c4.142 0 7.5-3.358 7.5-7.5s-3.358-7.5-7.5-7.5h-8.533v-33.097h24.565c4.142 0 7.5-3.358 7.5-7.5s-3.358-7.5-7.5-7.5h-24.565v-33.097h33.097v24.564c0 4.142 3.358 7.5 7.5 7.5s7.5-3.358 7.5-7.5v-24.564h24.564c4.142 0 7.5-3.358 7.5-7.5s-3.358-7.5-7.5-7.5h-24.564v-33.096h33.097v24.564c0 4.142 3.358 7.5 7.5 7.5s7.5-3.358 7.5-7.5v-24.564h33.097v8.532c0 4.142 3.358 7.5 7.5 7.5s7.5-3.358 7.5-7.5v-8.532h33.097v24.564c0 4.142 3.358 7.5 7.5 7.5s7.5-3.358 7.5-7.5v-24.564h33.095v33.097h-24.564c-4.142 0-7.5 3.358-7.5 7.5s3.358 7.5 7.5 7.5h24.564v24.564c0 4.142 3.358 7.5 7.5 7.5s7.5-3.358 7.5-7.5v-24.564h33.097v33.097h-24.565c-4.142 0-7.5 3.358-7.5 7.5s3.358 7.5 7.5 7.5h24.565v33.097h-8.532c-4.142 0-7.5 3.358-7.5 7.5s3.358 7.5 7.5 7.5h8.532v33.097h-.516c-4.142 0-7.5 3.358-7.5 7.5s3.358 7.5 7.5 7.5h48.613v17.064h-8.532c-4.142 0-7.5 3.358-7.5 7.5s3.358 7.5 7.5 7.5h64.129c4.142 0 7.5-3.358 7.5-7.5s-3.359-7.5-7.501-7.5zm-344.177-257.549v33.097h-33.097v-33.097zm-48.097 33.097h-33.097v-33.097h33.097zm-33.097 15h33.097v33.097h-33.097zm33.097 177.387h-33.097v-33.097h33.097zm0-48.096h-33.097v-33.097h33.097zm0-48.097h-33.097v-33.097h33.097zm48.097-48.097h-33.097v-33.097h33.097zm15-48.097v-33.097h33.097v33.097zm48.097 0v-33.097h33.097v33.097zm48.096 0v-33.097h33.097v33.097zm48.097 0v-33.097h33.097v33.097zm81.194-33.097v33.097h-33.097v-33.097zm48.097 0v33.097h-33.097v-33.097zm0 81.194h-33.097v-33.097h33.097zm-81.194 0v-33.097h33.097v33.097zm48.097 15h33.097v33.097h-33.097zm0 48.097h33.097v33.097h-33.097zm0 81.193v-33.097h33.097v33.097zm48.097-232.984c0-4.142-3.358-7.5-7.5-7.5h-384.775c-4.142 0-7.5 3.358-7.5 7.5v265.048h-17.064v-265.048c0-13.544 11.019-24.564 24.564-24.564h384.774c13.545 0 24.564 11.02 24.564 24.564v265.048h-17.064v-265.048z"/></g><g/><g/><g/><g/><g/><g/><g/><g/><g/><g/><g/><g/><g/><g/><g/></svg>