<?xml version="1.0"?>
<svg xmlns="http://www.w3.org/2000/svg" id="Layer_1" data-name="Layer 1" viewBox="0 0 128 128"><title/><path d="M100.678,107.71246a1.99312,1.99312,0,0,0,1.33435-1.88043v-2.01514a8.04614,8.04614,0,0,0-5.83344-7.75635l1.16418-16.022a7.01621,7.01621,0,0,0-2.89081-6.2124c-1.92932-1.39429-5.03857-3.54669-8.3418-5.80707a2.00347,2.00347,0,0,0-.88464-1.68317l-1.11029-.74481L94.7663,54.957a6.07612,6.07612,0,0,0,.75793-7.65967l-5.64038-8.44281a1.95516,1.95516,0,0,0-.28375-2.1651L80.64825,26.30566a7.96264,7.96264,0,0,0-4.65375-2.64014l-7.77258-1.3501V9a8.94466,8.94466,0,1,0-17.889,0V22.36035l-6.277,1.26318a7.9694,7.9694,0,0,0-4.54846,2.72314l-8.59076,10.373a1.95375,1.95375,0,0,0-.25824,2.135l-5.6402,8.44214a6.07667,6.07667,0,0,0,.758,7.66016l12.206,12.18018a6.23071,6.23071,0,0,0,5.59607,1.75256L39.48663,82.41748a2.01247,2.01247,0,0,0,.1723,1.56787,1.9906,1.9906,0,0,0,.55695.62555L32.82,116.105a8.03666,8.03666,0,0,0-6.33911,7.87988V126a1.99394,1.99394,0,0,0,1.98767,2H41.50488a5.9878,5.9878,0,0,0,5.68542-4.21729l9.68262-34.83417a1.94222,1.94222,0,0,0,2.30261-1.31622l3.29205-9.938,11.92847,5.144a1.9675,1.9675,0,0,0,1.43341.04456l5.78113,3.41345L81.2345,101.665a6.00662,6.00662,0,0,0,2.96509,5.34637,11.92753,11.92753,0,1,0,16.47839.701ZM84.002,52.49219a2.00993,2.00993,0,0,0,.2193-2.30762l-2.86121-4.99677,5.41644-3.815L92.2254,49.5293a2.05224,2.05224,0,0,1-.25867,2.58789L81.27429,62.793a2.30514,2.30514,0,0,1-.65094.45563L77.3241,61.0354a2.304,2.304,0,0,1,.55865-1.43188Zm-8.3894-7.22705,1.14233,1.14893a1.965,1.965,0,0,0,1.03021.54279l2.28613,3.99237L74.877,56.98535a6.29372,6.29372,0,0,0-1.03412,1.71484l-.04724-.03168Zm-21.30432-22.787a8.87326,8.87326,0,0,0,9.93829,0V24a4.96924,4.96924,0,1,1-9.93829,0Zm-6.95685,4.56116,3.30762-.66559a8.91764,8.91764,0,0,0,17.25049-.05328l4.28772.74457v13.8006L70.95892,50H48.808l-1.45654-9.16028ZM42.7561,46.959a1.97334,1.97334,0,0,0,1.21637-.75885l.16888-.22705,1.73645,10.9201-5.3891-5.97479Zm.42682,17.93158a2.36624,2.36624,0,0,1-2.40161-.59375l-12.206-12.17969a2.05341,2.05341,0,0,1-.25818-2.58838L33.766,41.37274l5.41644,3.81506-2.86121,4.99677a2.00988,2.00988,0,0,0,.25037,2.34277l7.68719,8.52295a2.35894,2.35894,0,0,1-1.07587,3.84033Zm.20575,57.7251A1.98946,1.98946,0,0,1,41.50488,124H30.45624v-.01514a4.01564,4.01564,0,0,1,3.97534-4.0459,1.99047,1.99047,0,0,0,1.93427-1.54l7.6723-32.67072L53.013,87.98584Zm31.0802-44.09766L63.25275,73.68121V70.25391a1.98768,1.98768,0,1,0-3.97528,0v4.42139l-3.29114,9.93506L43.89874,81.56982,49.81805,62H71.59558l9.74225,6.53516ZM87.196,103.832a1.95233,1.95233,0,0,1-1.41071-.6001,2.0326,2.0326,0,0,1-.57648-1.47266l.40472-16.542a2.00426,2.00426,0,0,0-.9812-1.77441l-6.19855-3.6601L84.13123,71.502c3.17859,2.17633,6.14685,4.23218,8.002,5.57269a3.07117,3.07117,0,0,1,1.24475,2.67969L92.07935,97.625a2.00832,2.00832,0,0,0,.52649,1.50781,1.98326,1.98326,0,0,0,1.45581.63818,4.01564,4.01564,0,0,1,3.97534,4.0459Z"/></svg>
