<svg id="a" height="64" viewBox="0 0 64 64" width="64" xmlns="http://www.w3.org/2000/svg" data-name="Expanded copy 2"><path d="m52.70386 42.81494c-.01093-.00934-.01569-.02277-.0271-.03174-.00836-.00659-.01886-.00757-.02734-.01385-.66241-.55023-1.38678-1.03107-2.16608-1.4314.74994-.94592 1.2569-2.08887 1.43683-3.33795h1.07983c1.6543 0 3-1.3457 3-3s-1.3457-3-3-3h-1v-3c0-1.6543-1.3457-3-3-3h-6c-2.75684 0-5 2.24316-5 5v1h-1c-1.6543 0-3 1.3457-3 3s1.3457 3 3 3h1.0799c.17993 1.24908.68683 2.39203 1.43677 3.33795-.77936.40033-1.50372.88123-2.16614 1.43152-.00848.00629-.01892.00714-.02728.01373-.01141.00897-.01624.02246-.02716.0318-2.66089 2.23724-4.29608 5.57916-4.29608 9.185v5c0 1.6543 1.3457 3 3 3h18c1.6543 0 3-1.3457 3-3v-5c0-3.6059-1.63519-6.94781-4.29614-9.18506zm-12.70386-8.81494h10v3c0 2.75684-2.24316 5-5 5s-5-2.24316-5-5zm0-3c0-1.6543 1.3457-3 3-3h6c.55176 0 1 .44873 1 1v3h-10zm15 26c0 .55127-.44824 1-1 1h-3v-6c0-.55225-.44727-1-1-1s-1 .44775-1 1v6h-8v-6c0-.55225-.44727-1-1-1s-1 .44775-1 1v6h-3c-.55176 0-1-.44873-1-1v-5c0-2.67023 1.07495-5.16772 2.86914-6.99957 1.86725 1.91675 4.40991 2.99957 7.13086 2.99957s5.26361-1.08282 7.13086-2.99957c1.79419 1.83185 2.86914 4.32935 2.86914 6.99957zm-28.2951-14.18445c-.01111-.00952-.01599-.02319-.02765-.03235-.00848-.00671-.01917-.00769-.02783-.01404-.66235-.55023-1.38654-1.03101-2.16583-1.43134.74988-.94592 1.25665-2.08881 1.43658-3.33783h1.07983c1.6543 0 3-1.3457 3-3s-1.3457-3-3-3h-1v-1c0-2.75684-2.24316-5-5-5h-6c-1.6543 0-3 1.3457-3 3v3h-1c-1.6543 0-3 1.3457-3 3s1.3457 3 3 3h1.07983c.17993 1.24902.68671 2.39191 1.43658 3.33783-.7793.40033-1.5036.8811-2.16595 1.4314-.00867.00635-.01923.00732-.02771.01398-.01166.00916-.01654.02283-.02765.03235-2.6604 2.23743-4.2951 5.57922-4.2951 9.18445v5c0 1.6543 1.3457 3 3 3h18c1.6543 0 3-1.3457 3-3v-5c0-3.60522-1.6347-6.94702-4.2951-9.18445zm-12.7049-8.81555h10v3c0 2.75684-2.24316 5-5 5s-5-2.24316-5-5zm0-5c0-.55127.44873-1 1-1h6c1.6543 0 3 1.3457 3 3v1h-10zm15 28c0 .55127-.44873 1-1 1h-3v-6c0-.55225-.44775-1-1-1s-1 .44775-1 1v6h-8v-6c0-.55225-.44775-1-1-1s-1 .44775-1 1v6h-3c-.55127 0-1-.44873-1-1v-5c0-2.67023 1.07501-5.16772 2.86914-6.99963 1.86737 1.91675 4.41034 2.99963 7.13086 2.99963s5.26349-1.08289 7.13086-2.99963c1.79413 1.83191 2.86914 4.32941 2.86914 6.99963zm14-42c0-6.06543-4.93457-11-11-11s-11 4.93457-11 11 4.93457 11 11 11 11-4.93457 11-11zm-14 0c0 1.6543 1.3457 3 3 3 .80127 0 1.55469-.31201 2.12109-.87842.39062-.39062 1.02344-.39062 1.41406 0s.39062 1.02344 0 1.41406c-.94434.94434-2.19922 1.46436-3.53516 1.46436-2.75684 0-5-2.24316-5-5s2.24316-5 5-5c1.33594 0 2.59082.52002 3.53516 1.46436.39062.39062.39062 1.02344 0 1.41406s-1.02344.39062-1.41406 0c-.56641-.56641-1.31982-.87842-2.12109-.87842-1.6543 0-3 1.3457-3 3z"/></svg>