<svg id="Layer_1" enable-background="new 0 0 114.061 248.911" height="512" viewBox="0 0 114.061 248.911" width="512" xmlns="http://www.w3.org/2000/svg"><g><path d="m32.089 24.776c4.481-6.243 11.748-10.164 19.849-10.164 1.407 0 2.819.124 4.215.367.456.079.91.171 1.361.275 4.283.999 8.114 3.099 11.227 6.041-1.062-3.771-2.954-7.491-5.708-10.834-9.078-11.016-23.927-13.771-33.168-6.157-8.562 7.054-9.29 20.528-2.137 31.232.099-.662.218-1.322.371-1.981.759-3.253 2.144-6.209 3.99-8.779z"/><path d="m29.495 37.94c-.568 10.688 6.575 20.568 17.36 23.08 12.1 2.817 24.193-4.707 27.01-16.808 1.628-6.988-.2-13.971-4.361-19.169-3.044-3.802-7.334-6.65-12.445-7.841-12.1-2.817-24.193 4.707-27.012 16.807-.306 1.314-.482 2.628-.552 3.931z"/><path d="m81.003 96.92v-.46c-.073.1-.142.193-.223.303z"/><path d="m76.001 121.693c-5.289 4.26-11.913 7.807-19.607 8.288-1.585.099-3.22.055-4.893-.128-1.285-.14-2.591-.35-3.925-.677-4.452 2.56-8.667 4.091-12.552 4.562-3.169 2.324-4.38 4.492-3.601 6.446l-.03-.04c.265.609.651 1.821 1.518 4.536l.157.483-.097.5c-.494 2.561-.705 3.365-.857 3.736-.069.18-.159.35-.27.506-.74 1.049-2.192 1.301-3.242.563l-1.652-1.163-.038-.027v87.27c0 6.83 5.537 12.363 12.363 12.363 6.828 0 12.365-5.533 12.365-12.363v-80.271h4.635v80.271c0 6.83 5.537 12.363 12.363 12.363 6.828 0 12.365-5.533 12.365-12.363v-88-16.938-14.498c-1.499 1.548-3.169 3.104-5.002 4.581z"/><path d="m103.392 2.634c-4.346.802-7.218 4.975-6.415 9.319.753 4.075 1.083 7.916 1.083 11.544-.006 16.455-6.839 28.895-13.913 37.548-3.525 4.297-7.082 7.572-9.705 9.724-.812.664-1.519 1.209-2.12 1.659h-17.899l12.189 8.585 10.283 7.241 4.107 2.893v-5.244c3.155-2.269 9.281-7.132 15.511-14.707 8.655-10.515 17.554-26.621 17.547-47.698 0-4.607-.426-9.433-1.352-14.448-.801-4.347-4.974-7.219-9.316-6.416z"/><path d="m29.13 100.479c1.638-4.258 3.574-8.411 5.546-12.243 1.854-3.603 3.74-6.922 5.44-9.751l-3.799-2.676c-2.116 3.305-4.877 8.419-6.453 13.582-1.198 3.925-1.714 7.878-.734 11.088z"/><path d="m58.561 121.211c7.772-.359 16.594-9.61 20.812-15.082l-3.801-2.678c-4.31 5.27-10.293 11.975-17.011 17.76z"/><path d="m67.359 83.984-16.41-11.557-2.756-1.94c-.239-.168-.621-.034-.855.3-.091.126-.145.266-.166.398-.201.29-.49.713-.846 1.242-.325.483-.705 1.055-1.136 1.716l-2.437-1.716-7.836-5.518s-1.883 2.191-4.18 5.795c-.275.432-.556.885-.841 1.356-.981 1.623-1.996 3.469-2.956 5.492-1.74 3.67-3.269 7.907-3.991 12.401-.791 4.927-.609 10.154 1.37 15.271.761.719 1.62 1.489 2.591 2.309 1.343 1.135 2.891 2.362 4.691 3.684 2.231 1.646 3.58 4.049 3.956 6.596.372 2.52-.207 5.18-1.832 7.388-1.627 2.205-4.103 3.637-6.794 3.982-.007.001-.015.003-.021.004-.411.052-.825.082-1.244.082-.043 0-.086-.005-.13-.005-1.069 1.707-2.712 3.25-5.2 3.16-.07-.043-4.592.114-4.592.114s-2.73 1.613-2.904 1.832c-.035.022-.064.051-.09.088-.104.146-.069.352.077.455l14.083 9.917 2.842 2.001c.147.104.352.067.455-.079.025-.038.041-.075.051-.114.149-.237.746-3.352.746-3.352s-1.375-4.309-1.439-4.361c-2.02-5.064 4.678-8.974 4.689-9.117 4.262-.4 8.683-2.187 13.024-4.776 1.271.349 2.518.577 3.746.739 2 .264 3.941.294 5.817.127 6.664-.593 12.513-3.631 17.294-7.353 2.625-2.043 4.922-4.282 6.866-6.429 4.626-5.108 7.219-9.67 7.219-9.67l-7.219-5.083-3.055-2.151c.999-1.317 1.724-2.313 2.118-2.864.119-.063.231-.16.32-.288.233-.333.231-.739-.008-.907l-6.537-4.604zm13.644 23.28c-2.086 2.684-6.715 8.193-12.217 11.988-2.887 1.99-6.009 3.496-9.131 3.878-1.92.235-3.84.055-5.701-.722 8.621-6.734 16.386-15.608 21.239-21.667l5.81 4.091 1.192.84s-.429.61-1.192 1.592zm-54.092-14.247c.162-.968.381-1.939.641-2.907 2.363-8.788 8.243-17.113 8.243-17.113l4.274 3.01 2.726 1.92c-.464.755-.952 1.563-1.454 2.408-1.223 2.059-2.538 4.371-3.863 6.859-2.897 5.44-5.836 11.718-7.925 18.032-1.399-1.537-2.229-3.343-2.642-5.296-.46-2.171-.399-4.526 0-6.913z"/><path d="m20.93 127.713c1.062.782 2.253 1.261 3.472 1.455.42.067.843.104 1.266.104.302 0 .603-.018.902-.052.114-.013.228-.039.342-.058.084-.013.168-.027.251-.043 1.915-.363 3.706-1.41 4.953-3.104 1.194-1.621 1.678-3.542 1.523-5.402-.186-2.223-1.286-4.357-3.222-5.782-1.273-.936-2.426-1.835-3.506-2.711-.048-.039-.098-.078-.145-.116-1.58-1.287-2.961-2.507-4.149-3.649-1.836-1.767-3.236-3.355-4.226-4.72-.445-.614-.794-1.163-1.092-1.672-1.108-1.896-1.302-3.083-1.298-3.675 0-.059.002-.115.005-.176.001-.013.004-.024.005-.036.064-.717.343-1.502 1.793-2.879.725-.691 1.734-1.391 2.887-2.06.914-7.717 4.241-14.761 7.268-19.802-2.619.651-6.226 1.707-10.046 3.328-3.627 1.566-7.485 3.614-10.919 6.739-3.385 3.053-6.513 7.663-6.938 13.459v.002.001c-.001.006-.001.012-.002.019-.002.027 0 .055-.002.082-.031.435-.052.875-.052 1.323.002 5.07 2.011 10.057 5.467 14.776.608.83 1.279 1.66 1.982 2.491 3.324 3.934 7.719 7.907 13.481 12.158z"/></g></svg>