<svg id="Layer_1" enable-background="new 0 0 203 207.108" height="512" viewBox="0 0 203 207.108" width="512" xmlns="http://www.w3.org/2000/svg"><g><path d="m87.489 71.233c-3.924.764-8.167 1.404-12.762 1.925-7.002.78-14.614 1.242-22.679 1.387-1.795.032-3.604.054-5.442.055-1.52-.001-2.941-.012-4.265-.031-6.211-.087-10.104-.334-10.149-.336-5.492-.341-9.694-5.095-9.351-10.598.326-5.26 4.708-9.38 9.972-9.38.209 0 .419.006.628.018l.879.046c.601.029 1.504.071 2.663.113 1.661.06 4.138.127 7.175.152-3.791-4.481-8.976-7.125-14.07-5.912-8.558 2.038-17.412 11.85-15.143 27.166 3.24 21.043 7.986 33.374 20.506 51.906 3.013 3.801 6.057 6.154 9.061 7.483l-4.065 29.619-32.711 18.94c-5.974 3.459-8.013 11.107-4.554 17.081 2.317 4.002 6.515 6.238 10.829 6.238 2.126 0 4.279-.543 6.252-1.685l38-22c3.321-1.923 5.599-5.315 6.121-9.118l4.363-31.79c3.61 2.715 7.647 6.041 11.854 10.019 11.303 10.689 23.811 26.025 32.931 47.037 2.75 6.333 10.111 9.238 16.443 6.49 6.333-2.748 9.24-10.11 6.492-16.443-12.415-28.601-30.245-48.332-44.98-60.898-10.743-9.158-19.863-14.566-24.324-16.971-6.844-10.522-11.196-23.776-14.558-35.286 3.627.464 7.57.759 11.78.766h.049c7.949.001 16.844-1.071 26.128-3.987-.686-.111-1.361-.38-1.963-.825-.438-.325-.804-.726-1.11-1.181z"/><path d="m96.241 69.172c-.158 1.051-.676 1.982-1.485 2.634 2.561-.952 5.144-2.047 7.738-3.308 1.267-.616 2.295-1.523 3.05-2.6-.229.117-.459.232-.698.332-2.637 1.092-5.502 2.069-8.605 2.942z"/><path d="m110.974 56.375c19.166-10.333 51.301-26.85 77.271-44.627.012-.007.023-.012.036-.02l.831-.518c1.059-.66 1.311-2.172.561-3.376l-4.076-6.542c-.751-1.205-2.217-1.646-3.277-.987l-.832.518c-.012.008-.021.017-.032.024-27.014 15.253-55.57 36.426-73.356 49.141.885.897 1.626 1.953 2.131 3.167.432 1.041.672 2.127.743 3.22z"/><path d="m92.34 70.992.96-.597c.246-.153.433-.363.59-.593-1.339.341-2.718.666-4.144.971.773.596 1.796.716 2.594.219z"/><path d="m45.679 56.595c-3.125-.01-5.818-.069-7.88-.135-.309-.01-.606-.02-.887-.03-1.169-.042-2.082-.083-2.694-.113-.615-.031-.898-.048-.899-.048-4.41-.273-8.206 3.079-8.48 7.49-.081 1.307.163 2.556.652 3.68 1.162 2.667 3.735 4.608 6.838 4.801v-.002c.047.003.898.056 2.395.12 2.449.104 6.633.24 11.884.242 1.532-.001 3.175-.017 4.871-.044 6.832-.111 14.844-.473 23.025-1.386 3.95-.447 7.928-1.015 11.839-1.75.701-.132 1.398-.278 2.094-.421 2.029-.418 4.031-.885 6-1.411.872-.233 1.745-.466 2.602-.722 2.423-.726 4.778-1.546 7.038-2.481 1.128-.47 2.084-1.173 2.852-2.024.621-.687 1.121-1.467 1.47-2.313.339-.82.531-1.698.583-2.594.067-1.171-.113-2.373-.595-3.528-.452-1.085-1.12-2.013-1.928-2.766-.521-.486-1.097-.903-1.719-1.231-2.037-1.076-4.521-1.268-6.813-.313-6.567 2.759-15.849 4.628-25.196 5.654-9.362 1.047-18.83 1.332-26.121 1.329-.319-.001-.624-.003-.931-.004z"/><path d="m12.518 43.264c11.134 5.514 24.627.958 30.143-10.175 2.55-5.15 2.941-10.806 1.527-15.944-2.984.427-6.189.807-9.537 1.119-8.354.777-15.936.979-21.371.674 5.037-.415 11.305-1.303 18.051-2.63 4.146-.815 8.061-1.716 11.584-2.643 5.733-1.508 10.418-3.085 13.338-4.48 2.225-1.063 3.431-2.021 3.285-2.76-.376-1.905-9.575-1.764-21.809.124-1.532-1.408-3.283-2.63-5.242-3.601-11.134-5.513-24.63-.958-30.145 10.175-5.514 11.131-.959 24.629 10.176 30.141z"/><circle cx="193.5" cy="39.803" r="9.5"/></g></svg>