<svg id="Layer_1" enable-background="new 0 0 132.501 234.611" height="512" viewBox="0 0 132.501 234.611" width="512" xmlns="http://www.w3.org/2000/svg"><g><path d="m58.525 101.367h-.102-.002c-5.32-.006-10.979-.789-16.941-2.313 1.103 15.275 2.893 31.756 5.156 44.532-2.538 2.126-5.255 4.724-7.98 7.911-9.727 11.285-18.898 30.036-18.817 57.069 0 4.379.231 8.981.724 13.812.656 6.438 6.087 11.234 12.421 11.234.424 0 .852-.021 1.282-.065 6.867-.7 11.869-6.835 11.169-13.702-.412-4.023-.596-7.775-.596-11.278.083-21.591 6.741-33.567 12.844-40.852 3.081-3.616 6.119-5.993 8.265-7.413 1.071-.708 1.917-1.174 2.414-1.432.229-.117.386-.191.456-.225 1.444-.603 2.706-1.455 3.778-2.474 6.628 17.166 18.137 42.734 36.808 72.572 2.371 3.789 6.443 5.87 10.607 5.87 2.266 0 4.558-.615 6.62-1.906 5.851-3.662 7.628-11.375 3.964-17.226-16.149-25.803-26.581-48.142-32.942-63.92-2.473-6.131-4.324-11.256-5.665-15.221-4.35-14.299-6.72-29.091-7.086-43.967-.195.175-.387.353-.588.524-6.483 5.462-15.641 8.47-25.789 8.47z"/><path d="m5.96 85.74.046-.067.051-.063c.625-.761 1.345-1.699 2.143-2.778-.764-1.43-1.174-3.028-1.188-4.653-1.09.626-2.051 1.516-2.771 2.652-1.262 1.993-1.524 4.329-.935 6.436.015.002.029 0 .044.002.721.003 1.734-.27 2.61-1.529z"/><path d="m13.678 91.52-.049.064-.053.062c-.811.941-1.089 1.919-.831 2.912.084.225.143.452.19.679 4.157 1.879 8.159 2.883 12.103 2.898.083.001.166.001.248.001 2.817 0 5.479-.613 7.867-1.629-5.56-1.97-11.355-4.534-17.368-7.692-.825 1.016-1.536 1.926-2.107 2.705z"/><path d="m40.526 60.584c-2.476 2.816-4.885 5.539-7.18 8.124-.316 1.823-.775 3.852-1.425 5.752 3.037 1.374 5.849 2.489 8.45 3.391 2.387.827 4.596 1.478 6.627 1.977 4.727 1.163 8.519 1.541 11.419 1.541 5.643-.017 10.031-1.294 13.064-3.813.443-.358.789-.721 1.091-1.073l1.904.844c-.449.591-1.019 1.205-1.738 1.785-2.579 2.143-6.946 4.236-14.315 4.256-3.388.007-7.43-.478-12.123-1.651-1.853-.463-3.799-1.024-5.86-1.718-2.869-.967-5.953-2.188-9.231-3.667-1.069-.482-2.159-.993-3.272-1.535-.612-.298-1.23-.605-1.855-.921-1.684-.853-3.406-1.759-5.188-2.753-.537-.299-1.093-.523-1.659-.688-.724-.211-1.462-.32-2.196-.323-2.818-.011-5.557 1.469-7.027 4.105-.558 1.002-.873 2.071-.974 3.144-.116 1.239.059 2.483.5 3.628.265.686.627 1.336 1.075 1.931.651.866 1.486 1.616 2.494 2.177.734.409 1.454.792 2.177 1.181.604.325 1.207.649 1.803.96 6.641 3.469 12.81 6.108 18.54 8.021 1.953.652 3.854 1.219 5.707 1.707 6.238 1.645 11.919 2.395 17.089 2.402h.101c10.466 0 18.816-3.21 24.499-8.001.646-.551 1.254-1.12 1.834-1.701 1.801-1.806 3.275-3.747 4.405-5.785 1.698-3.063 2.62-6.341 2.667-9.702-.006-2.683-.636-5.62-2.587-8.276-1.899-2.679-5.377-4.568-8.677-4.766-.332-.028-.659-.028-.983-.016-.084-.017-.164-.041-.249-.055-11.504-1.837-23.005-3.674-34.508-5.509-.025.028-.049.056-.074.084-1.464 1.682-2.905 3.327-4.325 4.943z"/><path d="m1.05 94.284 5.47 4.245c1.107.857 2.621.752 3.387-.234l.694-.892c.484-.627.549-1.462.247-2.206-.095-.324-.161-.683-.184-1.066-.066-1.122.25-2.46 1.397-3.792.533-.728 1.183-1.562 1.929-2.487-.619-.334-1.234-.662-1.857-1.008-1.076-.599-1.988-1.376-2.742-2.264-.654.874-1.254 1.647-1.789 2.298-1.05 1.511-2.331 2.137-3.473 2.321-.324.052-.638.074-.931.064-.796-.107-1.587.163-2.074.79l-.693.893c-.763.986-.487 2.481.619 3.338z"/><path d="m79.335 9.485c.009-.012.017-.02.026-.031l.602-.773c.765-.986.476-2.492-.645-3.36l-6.09-4.725c-1.123-.87-2.65-.776-3.418.21l-.6.774c-.008.012-.013.023-.022.034-1.119 1.321-2.236 2.667-3.351 4.024 4.794.062 9.382 1.502 13.295 4.129.067-.094.136-.188.203-.282z"/><path d="m27.456 72.327c2.015-2.267 4.15-4.669 6.383-7.188 2.294-2.589 4.685-5.298 7.144-8.108.535-.612 1.071-1.224 1.612-1.845.012-.013.023-.027.035-.041 2.021-2.317 4.079-4.698 6.161-7.128-.104-.098-.212-.191-.315-.291-3.072-2.971-5.26-6.609-6.443-10.597-8.172 11.54-15.591 22.622-21.64 31.59.506.183 1.002.392 1.475.655 1.936 1.08 3.79 2.051 5.588 2.953z"/><path d="m81.155 13.959c-.509-.493-1.041-.949-1.582-1.384-.523-.42-1.064-.805-1.615-1.171-4.158-2.771-9.017-3.997-13.805-3.709-.955.058-1.907.167-2.85.346-4.404.835-8.605 2.973-11.959 6.439-4.735 4.892-6.787 11.381-6.221 17.669.086.955.224 1.903.431 2.842.919 4.162 3.02 8.111 6.313 11.296.074.072.156.131.232.202.49.461.988.908 1.507 1.317 8.952 7.057 21.97 6.327 30.07-2.04 3.997-4.131 6.07-9.401 6.286-14.727-2.967-.5-6.129-1.112-9.405-1.833-3.427-.753-6.694-1.561-9.709-2.39-.711-.195-1.404-.391-2.085-.587-3.34-.965-6.311-1.943-8.769-2.882 2.813.65 6.055 1.274 9.592 1.837.742.118 1.496.233 2.263.346 1.977.29 4.03.56 6.14.803 4.195.484 8.196.818 11.833 1.007.687.036 1.362.067 2.022.092 5.027.194 9.219.088 12.054-.302 2.442-.335 3.881-.881 3.967-1.629.206-1.797-7.43-4.234-18.369-6.116-.801-.138-1.621-.272-2.456-.404-1.031-1.804-2.316-3.503-3.885-5.022z"/></g></svg>