<svg id="Layer_1" enable-background="new 0 0 198.768 212.623" height="512" viewBox="0 0 198.768 212.623" width="512" xmlns="http://www.w3.org/2000/svg"><g><path d="m139.365 17.873c.206-1.797-7.43-4.234-18.369-6.116-.801-.138-1.621-.273-2.456-.404-1.031-1.806-2.316-3.504-3.885-5.023-8.929-8.64-23.17-8.406-31.812.521-8.64 8.925-8.407 23.169.522 31.808 8.928 8.64 23.167 8.406 31.809-.521 3.861-3.991 5.937-9.045 6.269-14.184-2.962-.834-6.119-1.657-9.388-2.375-8.194-1.801-15.477-3.917-20.562-5.859 4.925 1.138 11.165 2.198 17.995 2.986 4.195.484 8.196.818 11.833 1.007.687.036 1.362.067 2.022.092 2.955.114 5.621.125 7.895.035 4.925-.196 7.999-.861 8.127-1.967z"/><path d="m98.09 162.769c7.115-10.02 10.361-19.153 11.764-26.018l7.578-.923c3.843 1.257 13.115 4.994 23.813 14.693 10.959 9.966 23.555 26.216 33.245 53.344 1.822 5.115 6.637 8.308 11.774 8.308 1.393 0 2.81-.234 4.197-.729 6.502-2.315 9.896-9.467 7.578-15.971-12.858-36.189-31.517-57.613-47.425-69.642-7.345-5.572-14.04-9.15-19.26-11.417l-7.969-51.246c.606-.023 1.241-.037 1.9-.037 5.769 0 13.354 1.009 20.986 4.869 4.88 2.485 9.859 6.106 14.564 11.608 1.408-2.611 3.495-4.896 6.243-6.744 2.141-1.436 4.345-2.388 6.57-2.87-6.259-7.514-13.231-12.795-20.163-16.276-10.455-5.276-20.612-6.585-28.2-6.587-5.008.004-8.931.567-11.248 1.007-.377.005-.758.027-1.142.086l-39.865 6.2c-.903.141-1.743.432-2.509.835-.564.244-1.111.549-1.624.933h-.002l-.013.008c-.921.673-14.039 9.62-34.342 9.585-6.036 0-12.738-.771-20.059-2.784-4.261-1.172-8.663 1.332-9.835 5.592-.003.012-.005.024-.008.036 1.479-.694 3.122-1.093 4.861-1.093 6.34 0 11.498 5.159 11.498 11.498 0 .569-.055 1.123-.135 1.67 4.788.745 9.365 1.082 13.677 1.081 15.468-.026 27.47-4.109 35.001-7.657l16.237 52.485c.012.25.016.5.044.753.002.053.008.178.009.372-.044 1.83-.334 9.467-8.156 20.597-7.848 11.098-23.647 25.916-55.712 40.388-6.294 2.837-9.094 10.24-6.257 16.533 2.086 4.626 6.639 7.366 11.405 7.366 1.718 0 3.463-.356 5.13-1.107 35.046-15.799 54.861-33.205 65.85-48.746z"/><path d="m9.5 69.536c-1.892 0-3.651.56-5.131 1.513-2.626 1.691-4.369 4.633-4.369 7.987 0 5.247 4.254 9.501 9.5 9.501 4.792 0 8.742-3.549 9.395-8.159.062-.44.105-.886.105-1.342 0-5.246-4.252-9.5-9.5-9.5z"/><path d="m162.742 81.97c-2.295 5.24-1.575 12.232 4.118 20.71 8.695 12.957 36.029-5.393 27.333-18.351-6.159-9.174-12.628-12.487-18.56-11.844-2.448.265-4.806 1.2-7.012 2.682-2.61 1.751-4.665 4.033-5.879 6.803zm23.455 1.285c3.611 3.047 6.085 6.057 5.52 6.721-.561.664-3.942-1.264-7.553-4.309-.339-.286-.665-.572-.983-.856-3.059-2.732-5.047-5.258-4.537-5.861.198-.235.751-.142 1.537.203 1.444.634 3.68 2.131 6.016 4.102zm-12.341.158c.696-.525 3.563 2.107 6.403 5.877.63.838 1.203 1.659 1.71 2.439 1.778 2.734 2.716 4.936 2.176 5.343-.522.391-2.274-1-4.318-3.316-.675-.765-1.382-1.631-2.086-2.567-2.839-3.77-4.584-7.256-3.885-7.776zm-6.56 2.905c.774-.402 3.169 2.668 5.348 6.852.282.541.545 1.074.79 1.593 1.653 3.503 2.433 6.373 1.759 6.725-.77.398-3.167-2.67-5.344-6.861-1.077-2.069-1.9-4.023-2.366-5.521-.477-1.532-.578-2.586-.187-2.788z"/></g></svg>