<svg id="Glyph" height="512" viewBox="0 0 32 32" width="512" xmlns="http://www.w3.org/2000/svg"><g><path d="m19.46777 8.58301 3.12012-2.26709c.35059-.25488.49707-.70605.36328-1.11816s-.51758-.69092-.95117-.69092h-3.85742l-1.19141-3.66797c-.13379-.41211-.51758-.69092-.95117-.69092s-.81738.27881-.95117.69092l-1.19141 3.66797h-3.85742c-.43359 0-.81738.27881-.95117.69092s.0127.86328.36328 1.11816l3.12012 2.26709-1.19141 3.66846c-.13379.41211.0127.86377.36328 1.11816.35156.25488.82422.25488 1.17578 0l3.12012-2.26709 3.12012 2.26709c.34756.25198.82931.25119 1.17578 0 .35059-.25439.49707-.70605.36328-1.11816z"/><path d="m9 8.48389h-1.60254c-.43457 0-.81738-.27783-.95117-.69092l-.49512-1.52442c-.13379-.4121-.51758-.69091-.95117-.69091s-.81738.27881-.95117.69091l-.49512 1.52442c-.13379.41309-.5166.69092-.95117.69092h-1.60254c-.43359 0-.81738.27881-.95117.69092s.0127.86377.36328 1.11816l1.29688.94141c.35156.25586.49707.70557.36328 1.11865 0 0-.49343 1.51874-.49511 1.52391-.29094.8955.77525 1.67503 1.53906 1.11818l1.2959-.94189c.35156-.25586.82422-.25586 1.17578 0 0 0 1.29576.9418 1.2959.94189.75105.54589 1.83633-.20249 1.53906-1.11816l-.49512-1.52344c-.13379-.41357.01172-.86328.36328-1.11865l1.29688-.94189c.35059-.25439.49707-.70605.36328-1.11816s-.51759-.69093-.95118-.69093z"/><path d="m24.07227 12.35303s-.49325 1.51816-.49511 1.52391c-.29073.89483.77814 1.67293 1.53906 1.11818l1.2959-.94189c.35156-.25586.82422-.25586 1.17578 0l1.2959.9419c.7676.55961 1.83095-.21904 1.53906-1.11817l-.49512-1.52344c-.13379-.41357.01172-.86328.36328-1.11865l1.29688-.94189c.35059-.25439.49707-.70605.36328-1.11816s-.51759-.69093-.95118-.69093h-1.60254c-.43457 0-.81738-.27783-.95117-.69092l-.49512-1.52441c-.13379-.41211-.51758-.69092-.95117-.69092s-.81738.27881-.95117.69092l-.49512 1.52441c-.13379.41309-.5166.69092-.95117.69092h-1.60254c-.43359 0-.81738.27881-.95117.69092s.0127.86377.36328 1.11816l1.29688.94141c.35156.25585.49706.70556.36328 1.11865z"/><path d="m17.5 16h-3c-1.6543 0-3 1.3457-3 3v10c0 1.6543 1.3457 3 3 3h3c1.6543 0 3-1.3457 3-3v-10c0-1.6543-1.3457-3-3-3z"/><path d="m29 20h-3c-1.6543 0-3 1.3457-3 3v6c0 1.6543 1.3457 3 3 3h3c1.6543 0 3-1.3457 3-3v-6c0-1.6543-1.3457-3-3-3z"/><path d="m6 20h-3c-1.6543 0-3 1.3457-3 3v6c0 1.6543 1.3457 3 3 3h3c1.6543 0 3-1.3457 3-3v-6c0-1.6543-1.3457-3-3-3z"/></g></svg>