<svg id="Layer_1" enable-background="new 0 0 264.501 208.502" height="512" viewBox="0 0 264.501 208.502" width="512" xmlns="http://www.w3.org/2000/svg"><g><circle cx="255.001" cy="33.5" r="9.5"/><path d="m88.415 137.681c4.486 3.436 8.704 7.845 11.821 13.548 3.107 5.723 5.263 12.791 5.284 22.366 0 5.557-.758 11.966-2.62 19.346-1.688 6.693 2.368 13.49 9.063 15.179 1.025.259 2.055.383 3.066.383 5.592 0 10.684-3.777 12.113-9.445 2.309-9.147 3.38-17.626 3.38-25.462.022-13.923-3.463-25.81-8.847-35.253-8.098-14.226-19.916-22.74-29.413-27.738-2.773-1.454-5.364-2.616-7.675-3.55 4.751-12.536 12.228-24.575 17.684-33.912-6.215-2.83-11.277-3.757-11.342-3.766-2.671-.435-4.982-1.866-6.544-4.031-1.458-2.025-2.086-4.468-1.814-6.93.02-.173.03-.346.059-.519.789-4.865 4.935-8.396 9.859-8.396.537 0 1.08.044 1.613.13 1.037.179 3.646.689 7.221 1.793 1.574.486 3.331 1.085 5.231 1.826-.834-2.805-2.406-5.204-4.817-6.773-1.697-1.105-3.707-1.933-5.906-2.411-.252-.083-.51-.154-.774-.212h-.003c-.356-.071-6.806-1.5-15.337-1.508-7.4.044-16.509.972-24.769 5.872-4.098 2.455-7.915 6.051-10.547 10.835-2.648 4.773-4.046 10.568-4.037 17.12 0 .791.039 1.605.079 2.42 2.529-1.892 5.605-3.088 9.11-3.521 2.435-.298 4.718-.172 6.832.335.106-3.936.927-6.625 2.018-8.612 1.741-3.111 4.408-5.071 8.298-6.515.167-.061.346-.112.517-.17-3.85 5.388-6.943 10.419-9.533 15.667-.413.835-.813 1.677-1.2 2.526-.018-.005-.034-.011-.052-.017-2.049-.609-4.253-.745-6.541-.464-3.518.431-6.701 1.794-9.176 4.197-3.874 3.762-5.997 10.093-4.836 19.548.723 5.901 5.918 8.965 11.964 9.648.071.988.193 1.927.374 2.81 1.271 6.225 5.119 9.903 9.577 12.329-1.431 5.433-4.141 11.861-8.863 16.917-2.93 3.155-6.594 5.932-11.685 8.063-5.093 2.117-11.7 3.586-20.518 3.592-1.18 0-2.414-.026-3.697-.083-6.898-.293-12.728 5.06-13.021 11.958-.295 6.896 5.06 12.728 11.956 13.021 1.604.067 3.192.104 4.762.104 15.479.024 28.205-3.563 38.044-9.503 7.378-4.433 13.031-10.088 17.181-15.924 5.173-7.283 8.109-14.77 9.841-21.142 2.166 1.197 4.427 2.63 6.62 4.324zm-37.584-50.136c.386-.069.875.635 1.371 1.85-.569 1.762-1.115 3.584-1.641 5.481-.593-4.022-.502-7.197.27-7.331zm-6.979 16.726c-.867.01-1.618-3.813-1.666-8.533-.018-1.772.063-3.419.217-4.787.258-2.275.72-3.775 1.264-3.78.803-.007 1.499 3.23 1.645 7.423.013.363.023.731.026 1.107.051 4.724-.614 8.56-1.486 8.57z"/><path d="m195.657 35.262c-6.414 4.356-14.965 6.735-21.96 2.139-1.855-1.491-2.995-2.28-3.326-2.333-.407-.064.41.986 2.665 3.25 7.125 6.061 17.914 4.212 25.425-.137 2.349-1.245 4.811-2.187 7.321-2.823 5.172-1.312 10.55-1.31 15.569.132.022.006.044.011.066.017 4.785 1.261 8.903 1.92 10.083.096 1.25-1.855-2.593-5.918-8.745-6.837-9.3-1.582-18.984.894-26.371 5.997-.237.171-.484.333-.727.499z"/><path d="m158.276 26.712c.634-1.836-7.388-6.341-18.91-10.864-.615-1.988-1.514-3.925-2.719-5.749-6.849-10.366-20.803-13.219-31.171-6.371-10.365 6.846-13.22 20.803-6.369 31.168 6.849 10.367 20.802 13.217 31.169 6.37 4.795-3.168 7.979-7.859 9.341-13.011-2.794-1.132-5.755-2.416-8.805-3.831-7.61-3.53-14.264-7.171-18.809-10.167 4.563 2.176 10.426 4.561 16.923 6.807 3.993 1.381 7.83 2.572 11.341 3.543 5.713 1.581 10.556 2.574 13.781 2.838 2.459.2 3.982-.021 4.228-.733z"/><path d="m93.782 51.603c-4.36-.708-8.471 2.253-9.179 6.613-.018.108-.022.214-.036.322-.516 4.239 2.395 8.164 6.647 8.857l-.001.001c.425.059 5.728 1.09 12.109 4.03 2.074.955 4.262 2.11 6.434 3.501 4.441 2.828 8.804 6.571 12.26 11.477 3.453 4.921 6.085 10.994 7.037 19.024.477 4.072 3.936 7.072 7.939 7.072.309 0 .622-.019.936-.055 4.387-.514 7.531-4.488 7.018-8.875-1.268-10.963-5.186-20.007-10.329-27.053-7.735-10.6-17.912-16.714-26.024-20.263-.518-.226-1.028-.441-1.529-.646-2.174-.892-4.174-1.594-5.937-2.15-4.221-1.331-7.044-1.802-7.345-1.855zm-2.565 15.793c0-.001.001 0 .002 0z"/></g></svg>