<svg id="Layer_1" height="512" viewBox="0 0 224.1507 222.8802" width="512" xmlns="http://www.w3.org/2000/svg"><g><path d="m130.5259 169.4673c-.1715 0-.3427-.0139-.514-.0275l2.5815 23.9175h-3.2214l3.1593 19.835h35.1217c1.8438 0 3.3438 1.5 3.3438 3.3442 0 1.8438-1.5 3.3438-3.3438 3.3438h-76.624c-1.8447 0-3.3447-1.5-3.3447-3.3438 0-1.8442 1.5-3.3442 3.3447-3.3442h7.6831l-3.1592-19.835h-5.1851c-6.9033 0-12.5 5.5962-12.5 12.5 0 4.8636 2.7838 9.0684 6.8395 11.1346.2352 3.2855 2.9774 5.8883 6.3217 5.8883h76.624c3.498 0 6.3438-2.8457 6.3438-6.3438s-2.8457-6.3442-6.3438-6.3442h-9.4309c.6644-1.7946.9309-3.7319.7209-5.6763l-4.1116-38.0934-22.3651 2.9168c-.6415.085-1.2949.128-1.9404.128z"/><path d="m148.5914 111.602c-.8086.1982-1.6357.2979-2.4619.2979-1.3467 0-2.6621-.2588-3.9092-.7705l-8.6375-3.5441-14.226 40.8528c-.2017.5309-.3367 1.0702-.4175 1.6099-.7634 1.9153-1.0684 4.0439-.7826 6.2338.0072.0556.0219.1082.0298.1635.9716 6.7574 7.1869 11.5059 13.9819 10.6138l49.7559-6.4893.9681 3.8329 19.6392-3.6863-7.4626-29.7698c-.4775-1.9067.6846-3.8467 2.5918-4.3242.2891-.0728.5801-.1074.8662-.1074 1.5947 0 3.0518 1.0815 3.457 2.6978l19.0596 76.0327c.4775 1.9067-.6846 3.8467-2.5908 4.3242h-.001c-1.9053.4795-3.8457-.6855-4.3232-2.5908l-2.3496-9.3727-19.5718 3.6737 3.0697 12.1533c1.4307 5.666 6.5205 9.4414 12.1104 9.4414 1.0127 0 2.043-.124 3.0703-.3838 5.0062-1.2643 8.5344-5.3857 9.2887-10.1833.9412-.3275 1.7638-.8566 2.4387-1.5232 1.5988-1.5792 2.3535-3.9346 1.7688-6.2678l-19.0596-76.0332c-.8809-3.5103-4.4482-5.6514-7.9648-4.771-3.5098.8804-5.6504 4.4521-4.7705 7.9634l.075.2993.5923 2.3626c-1.0176-.1229-2.0623-.1326-3.1205.0057l-43.0795 5.6191-.2262-2.2896 31.0634-4.0518 15.0317-32.9825c-.5203.2252-1.0598.4203-1.6283.5602z"/><path d="m210.3173 191.7751-6.324-25.2278-19.6284 3.6844 6.3699 25.2192z"/><path d="m146.9302 90.7954 24.3524-5.9929.6843 2.2004-25.2155 6.2055-51.915-21.3027c-4.0889-1.6748-8.7607.2764-10.4385 4.3643-1.6768 4.0879.2773 8.7607 4.3643 10.4385l54.3301 22.293c.9697.3975 2.002.5986 3.0371.5986.6406 0 1.2822-.0771 1.9121-.2314l42.2754-10.4033c4.2351-1.0421 6.8378-5.2792 5.8883-9.5158-.0123-.055-.0183-.1099-.0319-.1649-.1989-.8068-.5135-1.5543-.9215-2.2296-.8542-1.5386-2.2327-2.797-4.0071-3.4713l-36.115-13.7238c-1.786-.6787-3.6648-.6474-5.3334-.053-1.309.2823-2.5659.8917-3.6365 1.8472l-14.443 12.8988z"/><path d="m196.5637 62.8511 3.759 1.3572c1.6096-2.4142 2.7637-5.157 3.3428-8.1081l-3.8287-.5533c-.5488 2.6393-1.6601 5.1334-3.2731 7.3042z"/><path d="m200.2419 51.8163c-.0018.4876-.0305.9723-.0701 1.4552l3.8196.552c.0603-.6569.0979-1.3204.1003-1.9925.0085-2.2241-.3108-4.3719-.9041-6.4033l-3.9336.3472c.6551 1.939.9957 3.9621.9879 6.0414z"/><path d="m182.8532 55.347c-.0596.2845-.2594 1.1759-.6146 2.3321l12.0486 4.35c1.6154-1.9879 2.7279-4.3232 3.2677-6.8121l-14.4143-2.083z"/><path d="m177.0544 65.8631c-1.2314.6621-2.5928.7334-3.9297.2056-2.9136-1.1496-6.3413-.5507-8.738.1673 4.1086 4.873 10.2461 7.9819 17.1189 8.0083 6.9846.0269 13.2372-3.1313 17.3831-8.1087l-17.415-6.2875c-.9349 2.3396-2.37 4.9151-4.4193 6.015z"/><path d="m183.5182 50.2264-.0813.6266 14.45 2.0882c.0275-.3767.0529-.7539.0542-1.1338.0085-2.014-.3635-3.9644-1.0627-5.8229l-9.8455.8688c-1.833.1617-3.2783 1.5489-3.5147 3.3731z"/><path d="m204.83 37.6001c-3.6526-10.3655-13.531-17.5837-24.9592-17.5837-.4277 0-.8564.0103-1.2871.0308-12.457.5884-22.8652 9.9648-24.749 22.2954-1.2666 8.2969 1.4521 16.6929 7.2891 22.6201 2.0615-.8843 7.8838-2.9888 12.8447-1.0337.7158.2822 1.3516.2544 1.9971-.0913 2.5234-1.3535 4.1924-6.8682 4.6221-8.8789l.6494-5.0283c.377-2.9033 2.6777-5.1108 5.5928-5.3682l13.4949-1.191c2.7957-.1478 5.6653-.4092 8.0587-.7489 3.3522-.4758 5.7682-1.1047 5.724-1.7889-.0972-1.5071-2.8386-2.6467-6.7991-3.0706-.7818-.0835-1.6124-.1376-2.4784-.1628zm-10.9426-6.3847c1.2046-.7645 3.1207.0965 4.2798 1.9229 1.1589 1.8264 1.1218 3.9267-.0828 4.6912s-3.1207-.0965-4.2798-1.9229c-1.1589-1.8265-1.1219-3.9268.0828-4.6912z"/><path d="m69.3701 72.8136 11.543-13.4878-69.3123-59.3184s-2.7727-.4258-7.5823 5.1942c-4.8097 5.6199-3.9607 8.2936-3.9607 8.2936z"/><path d="m86.4152 70.5253-3.5725-3.0574-1.0573-4.2-8.386 9.7988 4.3129.3958 4.073 3.4856c.1228-.5212.2751-1.0403.4847-1.5511.8525-2.0768 2.323-3.7547 4.1452-4.8717z"/><path d="m89.6713 89.5676 19.6077 25.0548c1.3633 1.7422 3.3867 2.8418 5.5898 3.0381.2373.0215.4736.0317.71.0317 1.958 0 3.8564-.7188 5.3291-2.0332l10.1843-9.0956z"/><path d="m104.7881 213.1922h21.6672l-3.1592-19.8349h-21.6673z"/></g></svg>