<svg id="Layer_1" enable-background="new 0 0 137.185 169.326" height="512" viewBox="0 0 137.185 169.326" width="512" xmlns="http://www.w3.org/2000/svg"><g><path d="m30.34 82.133c9.313 4.192 18.271 5.873 26.35 5.873h.081c11.061-.003 20.361-3.032 27.292-6.371.323.854.711 1.685 1.129 2.5.658-1.415 1.218-2.735 1.695-3.943 1.579-3.991 2.229-6.669 2.24-6.716 1.021-4.539 5.119-7.822 9.749-7.822.637 0 1.273.073 1.902.194.101.02.203.028.303.051 5.378 1.209 8.771 6.569 7.563 11.95l-.005.015-.027.112c-.678 2.809-3.443 12.861-10.543 24.325-.486.787-1.004 1.592-1.546 2.407 9.196 5.724 19.588 12.677 21.391 15.91l-20.036-12.41-2.636-1.633-1.705-1.056-12.902-7.992c-.249-.154-.502-.296-.758-.431-.615-.325-1.249-.595-1.896-.81-3.836-1.276-8.108-.632-11.443 1.878-4.04 3.041-5.829 8.157-4.599 13.039.027.11.049.221.079.33l.474 1.686 4.44 15.813.552 1.968 8.199 29.201c1.549 5.516 6.566 9.123 12.028 9.124 1.119 0 2.256-.151 3.386-.469 6.648-1.867 10.521-8.768 8.657-15.413l-4.986-17.754 12.66 7.84c2.843 1.762 6.115 2.234 9.148 1.597.109-.023.22-.038.329-.064 1.293-.205 2.734-.533 4.355-.907 8.93-2.064 16.652-5.125 15.868-21.508-2.764-22.195-7.301-34.604-18.703-52.584-7.615-11.861-19.175-14.218-27.061-11.455-1.459.266-2.86.935-4.022 2.022l-.001-.001s-.004.005-.028.026c-.33.303-3.518 3.111-8.692 5.813-5.438 2.844-12.972 5.544-21.85 5.538-5.923-.009-12.498-1.165-19.776-4.429.006 2.919-.713 5.879-2.2 8.776-1.201 2.337-2.699 4.268-4.455 5.78z"/><path d="m73.921 30.88c-3.979 1.249-9.805 2.672-14.597 3.58.036 1.127.158 2.256.368 3.381l16.423-5.606c-.498-.561-1.23-1.014-2.194-1.355z"/><path d="m77.261 55.746c4.812.997 9.98.437 14.705-1.955.467-.236.917-.491 1.359-.754-1.945-.078-3.866-.522-5.63-1.341z"/><path d="m49.187 118.961c-4.248 1.215-6.707 5.643-5.493 9.891 1.005 3.514 4.209 5.805 7.69 5.805.727 0 1.466-.1 2.2-.31 4.141-1.182 7.976-2.669 11.532-4.385l-4.415-15.721c-3.454 1.891-7.272 3.505-11.514 4.72z"/><path d="m94.824 103.656c.134-.201.256-.398.387-.599.396-.605.79-1.21 1.159-1.808 7.753-12.521 10.182-23.284 10.321-23.84.967-4.299-1.726-8.565-6.015-9.551-.013-.003-.023-.007-.035-.01-4.311-.97-8.591 1.739-9.561 6.05v-.002l-.002.008c-.057.257-.505 2.035-1.466 4.727-.757 2.118-1.83 4.8-3.296 7.785-1.14 2.32-2.51 4.814-4.148 7.355-.362.561-.741 1.123-1.127 1.686.217.12.433.239.646.37.001.001 6.003 3.433 13.137 7.829z"/><path d="m79.177 38.189-7.02 2.398c.118.418.27.896.455 1.418l6.632-2.275c-.046-.463-.067-.926-.067-1.391 0-.049 0-.097 0-.15z"/><path d="m70.103 51.418c-.291-.414-.569-.832-.839-1.26l-.727.25.864 1.281z"/><path d="m66.349 44.16c-.182-.508-.334-.986-.468-1.432l-2.053.701.873 1.295z"/><path d="m75.749 47.933c.246.338.502.671.766.997l5.368-2.085c-.192-.271-.375-.547-.548-.832z"/><path d="m59.353 32.421c4.832-.935 10.721-2.39 14.568-3.641 1.993.57 3.633 1.58 4.457 3.263.206.42.505.83.884 1.231l-19.114 6.524-.017.006c-1.199.41-1.956 1.527-1.955 2.731 0 .312.052.629.156.934l.056.164 7.638 11.323c.459 1.09 1.521 1.768 2.659 1.766.31 0 .626-.049.932-.154l.022-.008 4.433-1.721 13.728-5.329c1.813.992 3.893 1.557 6.104 1.557.871 0 1.718-.097 2.539-.263 4.396-.892 7.971-4.039 9.45-8.191 1.573.297 2.53.451 2.53.451 7.61-8.791 6.298-45.79-25.585-42.904-28.103 2.544-25.25 23.231-24.179 28.1-4.722 1.608-7.852 3.522-7.547 4.826.148.626 3.735.207 8.241-.665zm9.332 21.677c-.107-.002-.213-.068-.247-.176l-.057-.168-2.961-4.389.164-.056 4.569-1.57c.82 1.478 1.857 3.032 3.165 4.577l-2.564.996-1.996.775c-.027.007-.049.011-.073.011zm-7.884-11.581c.008-.102.072-.197.176-.229l.032-.011 6.28-2.146c.228 1.127.71 3.008 1.688 5.236l-5.077 1.746-2.105-3.122zm20.675-1.439-10.008 3.435c-.242-.539-.452-1.057-.635-1.547-.475-1.277-.758-2.357-.921-3.107-.049-.226-.086-.418-.115-.582l11.757-4.012c-.244.985-.376 2.014-.376 3.077 0 .939.104 1.853.298 2.736zm-5.555 10.229c-1.349-1.48-2.41-2.993-3.243-4.435l9.624-3.305c.706 1.565 1.717 2.961 2.96 4.111z"/><path d="m32.329 75.088c1.448-2.817 2.142-5.833 1.846-8.868-.552-5.675-4.567-11.417-13.615-16.063-13.878-7.132-28.923 22.152-15.043 29.285 9.86 5.064 17.14 4.817 22.02 1.353 1.992-1.414 3.588-3.361 4.792-5.707zm-18.484-19.855c.479-.723 4.063.803 7.995 3.416 3.933 2.609 6.738 5.314 6.256 6.039-.484.725-4.066-.803-7.996-3.41-3.939-2.614-6.738-5.319-6.255-6.045zm-5.699 8.195c.355-.793 4.142.121 8.451 2.051 2.737 1.223 5.027 2.558 6.245 3.572.7.584 1.049 1.063.918 1.352-.129.288-.71.35-1.598.223-1.567-.224-4.1-1.039-6.851-2.268-4.311-1.93-7.52-4.137-7.165-4.93zm4.888 13.084c-4.635-.92-8.255-2.355-8.083-3.211.17-.852 4.063-.801 8.695.117 4.629.918 8.251 2.354 8.079 3.207-.168.856-4.061.805-8.691-.113z"/></g></svg>