<svg xmlns="http://www.w3.org/2000/svg" width="41.198" height="26.234" viewBox="0 0 41.198 26.234">
  <g id="Group_9063" data-name="Group 9063" transform="translate(-1034.231 -823.411)">
    <g id="Group_9060" data-name="Group 9060" transform="translate(1063.228 832.491)">
      <g id="Group_9059" data-name="Group 9059" transform="translate(0 0)">
        <path id="Path_76827" data-name="Path 76827" d="M362.538,205.829A2.171,2.171,0,1,0,364.709,208,2.173,2.173,0,0,0,362.538,205.829Z" transform="translate(-360.367 -205.829)" fill="#d12f2f"/>
      </g>
    </g>
    <g id="Group_9062" data-name="Group 9062" transform="translate(1034.231 823.411)">
      <g id="Group_9061" data-name="Group 9061" transform="translate(0 0)">
        <path id="Path_76828" data-name="Path 76828" d="M41.078,110.734l-2.32-12.6a6.278,6.278,0,0,0-6.17-5.148H28.328a1.207,1.207,0,0,0-.79.294L25.087,95.4H16.112L13.661,93.28a1.207,1.207,0,0,0-.79-.294H8.61a6.278,6.278,0,0,0-6.17,5.148l-2.32,12.6A7.161,7.161,0,0,0,12.8,116.46l2.65-3.4H25.744l2.65,3.4a7.161,7.161,0,0,0,12.684-5.725Zm-27.657-5.29H11.672v1.749a1.207,1.207,0,1,1-2.414,0v-1.749H7.51a1.207,1.207,0,0,1,0-2.414H9.258v-1.749a1.207,1.207,0,1,1,2.414,0v1.749h1.749a1.207,1.207,0,0,1,0,2.414Zm17.747,3.378a4.585,4.585,0,1,1,4.585-4.585A4.59,4.59,0,0,1,31.168,108.822Z" transform="translate(0 -92.986)" fill="#d12f2f"/>
      </g>
    </g>
  </g>
</svg>
