<svg xmlns="http://www.w3.org/2000/svg" width="21.997" height="22.012" viewBox="0 0 21.997 22.012">
  <path id="ic_cricket" d="M3.837,17.69l.594.583-.682.671a9.891,9.891,0,0,0,.924,1.221l15.492-15.5a12.016,12.016,0,0,0-1.21-.913l-.682.671-.583-.583.528-.528A11,11,0,0,0,3.32,18.218ZM16.149,5.378l.583.583L15.2,7.5l-.583-.583Zm-3.07,3.081.572.583-1.529,1.54L11.539,10ZM10,11.54l.583.583-1.54,1.529-.583-.583ZM6.918,14.61,7.5,15.2l-1.54,1.54-.583-.583Zm.132,7.647.682-.671.583.583-.528.528a11,11,0,0,0,14.9-14.909l-.517.528-.594-.583.682-.671a9.9,9.9,0,0,0-.924-1.221L5.84,21.343A12,12,0,0,0,7.05,22.256ZM20.044,9.273l.583.583-1.54,1.54L18.5,10.8Zm-3.081,3.081.583.583-1.54,1.529-.583-.583Zm-3.081,3.07.583.583-1.529,1.54-.594-.583ZM10.8,18.5l.583.583-1.54,1.54-.583-.583Z" transform="translate(-2.004 -1.997)" fill="#d12f2f"/>
</svg>
