<svg xmlns="http://www.w3.org/2000/svg" width="22.032" height="22.032" viewBox="0 0 22.032 22.032">
  <path id="Vector" d="M11.766.25A11.016,11.016,0,1,0,22.782,11.266,11.029,11.029,0,0,0,11.766.25Zm7.449,15.681H16.738L15.843,14.4l.795-3.2,1.579-.669,2.259,1.944A8.731,8.731,0,0,1,19.215,15.931Zm-13.9-5.406,1.578.671.794,3.2-.895,1.536H4.318a8.733,8.733,0,0,1-1.261-3.461Zm13.191-4.9L17.532,8.4l-1.648.7-3.006-2.52V4.723L15.2,3.176a8.838,8.838,0,0,1,3.306,2.453ZM8.331,3.174l2.323,1.548V6.575L7.648,9.1,6,8.4,5.025,5.627A8.838,8.838,0,0,1,8.331,3.174Zm1.4,16.646L8.667,17.136l.847-1.457h4.5l.851,1.458-1.059,2.68a8.8,8.8,0,0,1-4.078,0Z" transform="translate(-0.75 -0.25)" fill="#b8b8b8"/>
</svg>
