<svg xmlns="http://www.w3.org/2000/svg" width="43" height="32.077" viewBox="0 0 43 32.077">
  <g id="Group_9058" data-name="Group 9058" transform="translate(-12906 -4039.578)">
    <circle id="Ellipse_595" data-name="Ellipse 595" cx="5.5" cy="5.5" r="5.5" transform="translate(12907.5 4039.578)" fill="#d12f2f"/>
    <path id="Path_76822" data-name="Path 76822" d="M13.061,11.917A12.526,12.526,0,0,0,7.167,22.542H3.583A3.594,3.594,0,0,1,0,18.958V15.375A5.391,5.391,0,0,1,5.375,10H8.958a5.375,5.375,0,0,1,4.1,1.917Z" transform="translate(12906 4041.947)" fill="#d12f2f"/>
    <circle id="Ellipse_596" data-name="Ellipse 596" cx="5.5" cy="5.5" r="5.5" transform="translate(12936.5 4039.578)" fill="#d12f2f"/>
    <path id="Path_76823" data-name="Path 76823" d="M29.771,15.375v3.583a3.594,3.594,0,0,1-3.583,3.583H22.6a12.525,12.525,0,0,0-5.893-10.624A5.375,5.375,0,0,1,20.812,10H24.4a5.391,5.391,0,0,1,5.375,5.375Z" transform="translate(12919.229 4041.947)" fill="#d12f2f"/>
    <circle id="Ellipse_597" data-name="Ellipse 597" cx="7" cy="7" r="7" transform="translate(12920.5 4039.578)" fill="#d12f2f"/>
    <path id="Path_76824" data-name="Path 76824" d="M27.5,20.958V22.75a5.391,5.391,0,0,1-5.375,5.375H11.375A5.391,5.391,0,0,1,6,22.75V20.958A8.958,8.958,0,0,1,14.958,12h3.583A8.958,8.958,0,0,1,27.5,20.958Z" transform="translate(12910.75 4043.53)" fill="#d12f2f"/>
  </g>
</svg>
