<svg xmlns="http://www.w3.org/2000/svg" width="32.056" height="37.601" viewBox="0 0 32.056 37.601">
  <g id="verified_11_" data-name="verified (11)" transform="translate(-4.36 -2.001)">
    <path id="Path_76825" data-name="Path 76825" d="M35.335,7.886A28.269,28.269,0,0,1,21.081,2.223a1.181,1.181,0,0,0-1.41.023A28.654,28.654,0,0,1,5.394,7.886,1.17,1.17,0,0,0,4.36,9.05v7.532A24.56,24.56,0,0,0,20.012,39.543a1.047,1.047,0,0,0,.376.059.989.989,0,0,0,.317-.047h.012l.106-.035A24.537,24.537,0,0,0,36.416,16.582V9.05a1.167,1.167,0,0,0-1.081-1.163ZM20.388,28.474A7.667,7.667,0,1,1,28.061,20.8,7.675,7.675,0,0,1,20.388,28.474Z" transform="translate(0)" fill="#d12f2f"/>
    <path id="Path_76826" data-name="Path 76826" d="M20.789,15.591l-3.3,3.3-1.041-1.041a1.175,1.175,0,1,0-1.662,1.662l1.872,1.872a1.175,1.175,0,0,0,1.662,0l4.126-4.127a1.175,1.175,0,1,0-1.662-1.662Z" transform="translate(1.766 2.319)" fill="#d12f2f"/>
  </g>
</svg>
